<svg xmlns="http://www.w3.org/2000/svg" viewBox="0 0 1280 330" role="img" aria-label="The proof chain — act, attest, anchor, audit (vault)"><rect width="1280" height="330" fill="#0A1322"></rect><defs><pattern id="dgdvault" width="24" height="24" patternUnits="userSpaceOnUse"><circle cx="12" cy="12" r="0.6" fill="#EAE5DA" opacity="0.14"></circle></pattern></defs><rect width="1280" height="330" fill="url(#dgdvault)"></rect><line x1="92" y1="96" x2="100" y2="96" stroke="#EAE5DA" stroke-width="0.75" stroke-opacity="0.28"></line><line x1="96" y1="92" x2="96" y2="100" stroke="#EAE5DA" stroke-width="0.75" stroke-opacity="0.28"></line><line x1="92" y1="192" x2="100" y2="192" stroke="#EAE5DA" stroke-width="0.75" stroke-opacity="0.28"></line><line x1="96" y1="188" x2="96" y2="196" stroke="#EAE5DA" stroke-width="0.75" stroke-opacity="0.28"></line><line x1="92" y1="288" x2="100" y2="288" stroke="#EAE5DA" stroke-width="0.75" stroke-opacity="0.28"></line><line x1="96" y1="284" x2="96" y2="292" stroke="#EAE5DA" stroke-width="0.75" stroke-opacity="0.28"></line><line x1="188" y1="96" x2="196" y2="96" stroke="#EAE5DA" stroke-width="0.75" stroke-opacity="0.28"></line><line x1="192" y1="92" x2="192" y2="100" stroke="#EAE5DA" stroke-width="0.75" stroke-opacity="0.28"></line><line x1="188" y1="192" x2="196" y2="192" stroke="#EAE5DA" stroke-width="0.75" stroke-opacity="0.28"></line><line x1="192" y1="188" x2="192" y2="196" stroke="#EAE5DA" stroke-width="0.75" stroke-opacity="0.28"></line><line x1="188" y1="288" x2="196" y2="288" stroke="#EAE5DA" stroke-width="0.75" stroke-opacity="0.28"></line><line x1="192" y1="284" x2="192" y2="292" stroke="#EAE5DA" stroke-width="0.75" stroke-opacity="0.28"></line><line x1="284" y1="96" x2="292" y2="96" stroke="#EAE5DA" stroke-width="0.75" stroke-opacity="0.28"></line><line x1="288" y1="92" x2="288" y2="100" stroke="#EAE5DA" stroke-width="0.75" stroke-opacity="0.28"></line><line x1="284" y1="192" x2="292" y2="192" stroke="#EAE5DA" stroke-width="0.75" stroke-opacity="0.28"></line><line x1="288" y1="188" x2="288" y2="196" stroke="#EAE5DA" stroke-width="0.75" stroke-opacity="0.28"></line><line x1="284" y1="288" x2="292" y2="288" stroke="#EAE5DA" stroke-width="0.75" stroke-opacity="0.28"></line><line x1="288" y1="284" x2="288" y2="292" stroke="#EAE5DA" stroke-width="0.75" stroke-opacity="0.28"></line><line x1="380" y1="96" x2="388" y2="96" stroke="#EAE5DA" stroke-width="0.75" stroke-opacity="0.28"></line><line x1="384" y1="92" x2="384" y2="100" stroke="#EAE5DA" stroke-width="0.75" stroke-opacity="0.28"></line><line x1="380" y1="192" x2="388" y2="192" stroke="#EAE5DA" stroke-width="0.75" stroke-opacity="0.28"></line><line x1="384" y1="188" x2="384" y2="196" stroke="#EAE5DA" stroke-width="0.75" stroke-opacity="0.28"></line><line x1="380" y1="288" x2="388" y2="288" stroke="#EAE5DA" stroke-width="0.75" stroke-opacity="0.28"></line><line x1="384" y1="284" x2="384" y2="292" stroke="#EAE5DA" stroke-width="0.75" stroke-opacity="0.28"></line><line x1="476" y1="96" x2="484" y2="96" stroke="#EAE5DA" stroke-width="0.75" stroke-opacity="0.28"></line><line x1="480" y1="92" x2="480" y2="100" stroke="#EAE5DA" stroke-width="0.75" stroke-opacity="0.28"></line><line x1="476" y1="192" x2="484" y2="192" stroke="#EAE5DA" stroke-width="0.75" stroke-opacity="0.28"></line><line x1="480" y1="188" x2="480" y2="196" stroke="#EAE5DA" stroke-width="0.75" stroke-opacity="0.28"></line><line x1="476" y1="288" x2="484" y2="288" stroke="#EAE5DA" stroke-width="0.75" stroke-opacity="0.28"></line><line x1="480" y1="284" x2="480" y2="292" stroke="#EAE5DA" stroke-width="0.75" stroke-opacity="0.28"></line><line x1="572" y1="96" x2="580" y2="96" stroke="#EAE5DA" stroke-width="0.75" stroke-opacity="0.28"></line><line x1="576" y1="92" x2="576" y2="100" stroke="#EAE5DA" stroke-width="0.75" stroke-opacity="0.28"></line><line x1="572" y1="192" x2="580" y2="192" stroke="#EAE5DA" stroke-width="0.75" stroke-opacity="0.28"></line><line x1="576" y1="188" x2="576" y2="196" stroke="#EAE5DA" stroke-width="0.75" stroke-opacity="0.28"></line><line x1="572" y1="288" x2="580" y2="288" stroke="#EAE5DA" stroke-width="0.75" stroke-opacity="0.28"></line><line x1="576" y1="284" x2="576" y2="292" stroke="#EAE5DA" stroke-width="0.75" stroke-opacity="0.28"></line><line x1="668" y1="96" x2="676" y2="96" stroke="#EAE5DA" stroke-width="0.75" stroke-opacity="0.28"></line><line x1="672" y1="92" x2="672" y2="100" stroke="#EAE5DA" stroke-width="0.75" stroke-opacity="0.28"></line><line x1="668" y1="192" x2="676" y2="192" stroke="#EAE5DA" stroke-width="0.75" stroke-opacity="0.28"></line><line x1="672" y1="188" x2="672" y2="196" stroke="#EAE5DA" stroke-width="0.75" stroke-opacity="0.28"></line><line x1="668" y1="288" x2="676" y2="288" stroke="#EAE5DA" stroke-width="0.75" stroke-opacity="0.28"></line><line x1="672" y1="284" x2="672" y2="292" stroke="#EAE5DA" stroke-width="0.75" stroke-opacity="0.28"></line><line x1="764" y1="96" x2="772" y2="96" stroke="#EAE5DA" stroke-width="0.75" stroke-opacity="0.28"></line><line x1="768" y1="92" x2="768" y2="100" stroke="#EAE5DA" stroke-width="0.75" stroke-opacity="0.28"></line><line x1="764" y1="192" x2="772" y2="192" stroke="#EAE5DA" stroke-width="0.75" stroke-opacity="0.28"></line><line x1="768" y1="188" x2="768" y2="196" stroke="#EAE5DA" stroke-width="0.75" stroke-opacity="0.28"></line><line x1="764" y1="288" x2="772" y2="288" stroke="#EAE5DA" stroke-width="0.75" stroke-opacity="0.28"></line><line x1="768" y1="284" x2="768" y2="292" stroke="#EAE5DA" stroke-width="0.75" stroke-opacity="0.28"></line><line x1="860" y1="96" x2="868" y2="96" stroke="#EAE5DA" stroke-width="0.75" stroke-opacity="0.28"></line><line x1="864" y1="92" x2="864" y2="100" stroke="#EAE5DA" stroke-width="0.75" stroke-opacity="0.28"></line><line x1="860" y1="192" x2="868" y2="192" stroke="#EAE5DA" stroke-width="0.75" stroke-opacity="0.28"></line><line x1="864" y1="188" x2="864" y2="196" stroke="#EAE5DA" stroke-width="0.75" stroke-opacity="0.28"></line><line x1="860" y1="288" x2="868" y2="288" stroke="#EAE5DA" stroke-width="0.75" stroke-opacity="0.28"></line><line x1="864" y1="284" x2="864" y2="292" stroke="#EAE5DA" stroke-width="0.75" stroke-opacity="0.28"></line><line x1="956" y1="96" x2="964" y2="96" stroke="#EAE5DA" stroke-width="0.75" stroke-opacity="0.28"></line><line x1="960" y1="92" x2="960" y2="100" stroke="#EAE5DA" stroke-width="0.75" stroke-opacity="0.28"></line><line x1="956" y1="192" x2="964" y2="192" stroke="#EAE5DA" stroke-width="0.75" stroke-opacity="0.28"></line><line x1="960" y1="188" x2="960" y2="196" stroke="#EAE5DA" stroke-width="0.75" stroke-opacity="0.28"></line><line x1="956" y1="288" x2="964" y2="288" stroke="#EAE5DA" stroke-width="0.75" stroke-opacity="0.28"></line><line x1="960" y1="284" x2="960" y2="292" stroke="#EAE5DA" stroke-width="0.75" stroke-opacity="0.28"></line><line x1="1052" y1="96" x2="1060" y2="96" stroke="#EAE5DA" stroke-width="0.75" stroke-opacity="0.28"></line><line x1="1056" y1="92" x2="1056" y2="100" stroke="#EAE5DA" stroke-width="0.75" stroke-opacity="0.28"></line><line x1="1052" y1="192" x2="1060" y2="192" stroke="#EAE5DA" stroke-width="0.75" stroke-opacity="0.28"></line><line x1="1056" y1="188" x2="1056" y2="196" stroke="#EAE5DA" stroke-width="0.75" stroke-opacity="0.28"></line><line x1="1052" y1="288" x2="1060" y2="288" stroke="#EAE5DA" stroke-width="0.75" stroke-opacity="0.28"></line><line x1="1056" y1="284" x2="1056" y2="292" stroke="#EAE5DA" stroke-width="0.75" stroke-opacity="0.28"></line><line x1="1148" y1="96" x2="1156" y2="96" stroke="#EAE5DA" stroke-width="0.75" stroke-opacity="0.28"></line><line x1="1152" y1="92" x2="1152" y2="100" stroke="#EAE5DA" stroke-width="0.75" stroke-opacity="0.28"></line><line x1="1148" y1="192" x2="1156" y2="192" stroke="#EAE5DA" stroke-width="0.75" stroke-opacity="0.28"></line><line x1="1152" y1="188" x2="1152" y2="196" stroke="#EAE5DA" stroke-width="0.75" stroke-opacity="0.28"></line><line x1="1148" y1="288" x2="1156" y2="288" stroke="#EAE5DA" stroke-width="0.75" stroke-opacity="0.28"></line><line x1="1152" y1="284" x2="1152" y2="292" stroke="#EAE5DA" stroke-width="0.75" stroke-opacity="0.28"></line><path d="M 30 16 H 16 V 30" fill="none" stroke="#9A9284" stroke-width="1.5"></path><path d="M 1250 16 H 1264 V 30" fill="none" stroke="#9A9284" stroke-width="1.5"></path><path d="M 30 314 H 16 V 300" fill="none" stroke="#9A9284" stroke-width="1.5"></path><path d="M 1250 314 H 1264 V 300" fill="none" stroke="#9A9284" stroke-width="1.5"></path><text x="40" y="36" font-family="ui-monospace,&#39;SF Mono&#39;,&#39;Cascadia Mono&#39;,Menlo,Consolas,monospace" font-size="11" letter-spacing="1.5" fill="#EAE5DA" text-anchor="start">THE PROOF CHAIN</text><text x="1240" y="36" font-family="ui-monospace,&#39;SF Mono&#39;,&#39;Cascadia Mono&#39;,Menlo,Consolas,monospace" font-size="11" letter-spacing="1.5" fill="#9A9284" text-anchor="end">PCA → ANCHOR → AUDIT</text><rect x="158" y="96" width="64" height="64" fill="none" stroke="#EAE5DA" stroke-width="2"></rect><line x1="190" y1="96" x2="190" y2="160" stroke="#EAE5DA" stroke-width="2"></line><line x1="132" y1="128" x2="152" y2="128" stroke="#EAE5DA" stroke-width="1.5"></line><polygon points="152,124 160,128 152,132" fill="#EAE5DA"></polygon><polygon points="490,90 528,128 490,166 452,128" fill="none" stroke="#EAE5DA" stroke-width="2" stroke-linejoin="miter"></polygon><polygon points="490,99 519,128 490,157 461,128" fill="none" stroke="#EAE5DA" stroke-opacity="0.4" stroke-width="0.75"></polygon><polygon points="490,109 509,128 490,147 471,128" fill="#A78BFA"></polygon><circle cx="490" cy="128" r="4" fill="#0A1322"></circle><polygon points="775.0888,92 804.9112,92 826,113.08879999999999 826,142.9112 804.9112,164 775.0888,164 754,142.9112 754,113.08879999999999" fill="none" stroke="#EAE5DA" stroke-width="2" stroke-linejoin="miter"></polygon><polygon points="778.8166,101 801.1834,101 817,116.8166 817,139.1834 801.1834,155 778.8166,155 763,139.1834 763,116.8166" fill="none" stroke="#EAE5DA" stroke-opacity="0.4" stroke-width="0.75"></polygon><circle cx="790" cy="128" r="4.5" fill="#EAE5DA"></circle><rect x="1056" y="98" width="68" height="60" fill="none" stroke="#EAE5DA" stroke-width="2"></rect><line x1="1068" y1="113" x2="1112" y2="113" stroke="#9A9284" stroke-width="1.2"></line><line x1="1068" y1="128" x2="1112" y2="128" stroke="#9A9284" stroke-width="1.2"></line><line x1="1068" y1="144" x2="1112" y2="144" stroke="#EAE5DA" stroke-width="2.5"></line><line x1="230" y1="128" x2="432" y2="128" stroke="#EAE5DA" stroke-width="1.5"></line><line x1="242" y1="123.5" x2="242" y2="132.5" stroke="#EAE5DA" stroke-width="1.1" stroke-opacity="0.5"></line><line x1="254" y1="123.5" x2="254" y2="132.5" stroke="#EAE5DA" stroke-width="1.1" stroke-opacity="0.5"></line><line x1="266" y1="123.5" x2="266" y2="132.5" stroke="#EAE5DA" stroke-width="1.1" stroke-opacity="0.5"></line><line x1="278" y1="123.5" x2="278" y2="132.5" stroke="#EAE5DA" stroke-width="1.1" stroke-opacity="0.5"></line><line x1="290" y1="123.5" x2="290" y2="132.5" stroke="#EAE5DA" stroke-width="1.1" stroke-opacity="0.5"></line><line x1="302" y1="123.5" x2="302" y2="132.5" stroke="#EAE5DA" stroke-width="1.1" stroke-opacity="0.5"></line><line x1="314" y1="123.5" x2="314" y2="132.5" stroke="#EAE5DA" stroke-width="1.1" stroke-opacity="0.5"></line><line x1="326" y1="123.5" x2="326" y2="132.5" stroke="#EAE5DA" stroke-width="1.1" stroke-opacity="0.5"></line><line x1="338" y1="123.5" x2="338" y2="132.5" stroke="#EAE5DA" stroke-width="1.1" stroke-opacity="0.5"></line><line x1="350" y1="123.5" x2="350" y2="132.5" stroke="#EAE5DA" stroke-width="1.1" stroke-opacity="0.5"></line><line x1="362" y1="123.5" x2="362" y2="132.5" stroke="#EAE5DA" stroke-width="1.1" stroke-opacity="0.5"></line><line x1="374" y1="123.5" x2="374" y2="132.5" stroke="#EAE5DA" stroke-width="1.1" stroke-opacity="0.5"></line><line x1="386" y1="123.5" x2="386" y2="132.5" stroke="#EAE5DA" stroke-width="1.1" stroke-opacity="0.5"></line><line x1="398" y1="123.5" x2="398" y2="132.5" stroke="#EAE5DA" stroke-width="1.1" stroke-opacity="0.5"></line><line x1="410" y1="123.5" x2="410" y2="132.5" stroke="#EAE5DA" stroke-width="1.1" stroke-opacity="0.5"></line><polygon points="432,122.5 444,128 432,133.5" fill="#EAE5DA"></polygon><line x1="536" y1="128" x2="734" y2="128" stroke="#EAE5DA" stroke-width="1.5"></line><line x1="548" y1="123.5" x2="548" y2="132.5" stroke="#EAE5DA" stroke-width="1.1" stroke-opacity="0.5"></line><line x1="560" y1="123.5" x2="560" y2="132.5" stroke="#EAE5DA" stroke-width="1.1" stroke-opacity="0.5"></line><line x1="572" y1="123.5" x2="572" y2="132.5" stroke="#EAE5DA" stroke-width="1.1" stroke-opacity="0.5"></line><line x1="584" y1="123.5" x2="584" y2="132.5" stroke="#EAE5DA" stroke-width="1.1" stroke-opacity="0.5"></line><line x1="596" y1="123.5" x2="596" y2="132.5" stroke="#EAE5DA" stroke-width="1.1" stroke-opacity="0.5"></line><line x1="608" y1="123.5" x2="608" y2="132.5" stroke="#EAE5DA" stroke-width="1.1" stroke-opacity="0.5"></line><line x1="620" y1="123.5" x2="620" y2="132.5" stroke="#EAE5DA" stroke-width="1.1" stroke-opacity="0.5"></line><line x1="632" y1="123.5" x2="632" y2="132.5" stroke="#EAE5DA" stroke-width="1.1" stroke-opacity="0.5"></line><line x1="644" y1="123.5" x2="644" y2="132.5" stroke="#EAE5DA" stroke-width="1.1" stroke-opacity="0.5"></line><line x1="656" y1="123.5" x2="656" y2="132.5" stroke="#EAE5DA" stroke-width="1.1" stroke-opacity="0.5"></line><line x1="668" y1="123.5" x2="668" y2="132.5" stroke="#EAE5DA" stroke-width="1.1" stroke-opacity="0.5"></line><line x1="680" y1="123.5" x2="680" y2="132.5" stroke="#EAE5DA" stroke-width="1.1" stroke-opacity="0.5"></line><line x1="692" y1="123.5" x2="692" y2="132.5" stroke="#EAE5DA" stroke-width="1.1" stroke-opacity="0.5"></line><line x1="704" y1="123.5" x2="704" y2="132.5" stroke="#EAE5DA" stroke-width="1.1" stroke-opacity="0.5"></line><line x1="716" y1="123.5" x2="716" y2="132.5" stroke="#EAE5DA" stroke-width="1.1" stroke-opacity="0.5"></line><polygon points="734,122.5 746,128 734,133.5" fill="#A78BFA"></polygon><line x1="834" y1="128" x2="1036" y2="128" stroke="#EAE5DA" stroke-width="1.5"></line><line x1="846" y1="123.5" x2="846" y2="132.5" stroke="#EAE5DA" stroke-width="1.1" stroke-opacity="0.5"></line><line x1="858" y1="123.5" x2="858" y2="132.5" stroke="#EAE5DA" stroke-width="1.1" stroke-opacity="0.5"></line><line x1="870" y1="123.5" x2="870" y2="132.5" stroke="#EAE5DA" stroke-width="1.1" stroke-opacity="0.5"></line><line x1="882" y1="123.5" x2="882" y2="132.5" stroke="#EAE5DA" stroke-width="1.1" stroke-opacity="0.5"></line><line x1="894" y1="123.5" x2="894" y2="132.5" stroke="#EAE5DA" stroke-width="1.1" stroke-opacity="0.5"></line><line x1="906" y1="123.5" x2="906" y2="132.5" stroke="#EAE5DA" stroke-width="1.1" stroke-opacity="0.5"></line><line x1="918" y1="123.5" x2="918" y2="132.5" stroke="#EAE5DA" stroke-width="1.1" stroke-opacity="0.5"></line><line x1="930" y1="123.5" x2="930" y2="132.5" stroke="#EAE5DA" stroke-width="1.1" stroke-opacity="0.5"></line><line x1="942" y1="123.5" x2="942" y2="132.5" stroke="#EAE5DA" stroke-width="1.1" stroke-opacity="0.5"></line><line x1="954" y1="123.5" x2="954" y2="132.5" stroke="#EAE5DA" stroke-width="1.1" stroke-opacity="0.5"></line><line x1="966" y1="123.5" x2="966" y2="132.5" stroke="#EAE5DA" stroke-width="1.1" stroke-opacity="0.5"></line><line x1="978" y1="123.5" x2="978" y2="132.5" stroke="#EAE5DA" stroke-width="1.1" stroke-opacity="0.5"></line><line x1="990" y1="123.5" x2="990" y2="132.5" stroke="#EAE5DA" stroke-width="1.1" stroke-opacity="0.5"></line><line x1="1002" y1="123.5" x2="1002" y2="132.5" stroke="#EAE5DA" stroke-width="1.1" stroke-opacity="0.5"></line><line x1="1014" y1="123.5" x2="1014" y2="132.5" stroke="#EAE5DA" stroke-width="1.1" stroke-opacity="0.5"></line><polygon points="1036,122.5 1048,128 1036,133.5" fill="#EAE5DA"></polygon><text x="190" y="220" font-family="ui-monospace,&#39;SF Mono&#39;,&#39;Cascadia Mono&#39;,Menlo,Consolas,monospace" font-size="12.5" letter-spacing="2" fill="#EAE5DA" text-anchor="middle">01 · ACT</text><text x="190" y="244" font-family="ui-monospace,&#39;SF Mono&#39;,&#39;Cascadia Mono&#39;,Menlo,Consolas,monospace" font-size="11" letter-spacing="0.5" fill="#9A9284" text-anchor="middle">a consequential action</text><text x="190" y="262" font-family="ui-monospace,&#39;SF Mono&#39;,&#39;Cascadia Mono&#39;,Menlo,Consolas,monospace" font-size="11" letter-spacing="0.5" fill="#9A9284" text-anchor="middle">is proposed at the gate</text><text x="490" y="220" font-family="ui-monospace,&#39;SF Mono&#39;,&#39;Cascadia Mono&#39;,Menlo,Consolas,monospace" font-size="12.5" letter-spacing="2" fill="#EAE5DA" text-anchor="middle">02 · ATTEST</text><text x="490" y="244" font-family="ui-monospace,&#39;SF Mono&#39;,&#39;Cascadia Mono&#39;,Menlo,Consolas,monospace" font-size="11" letter-spacing="0.5" fill="#9A9284" text-anchor="middle">the decision emits a</text><text x="490" y="262" font-family="ui-monospace,&#39;SF Mono&#39;,&#39;Cascadia Mono&#39;,Menlo,Consolas,monospace" font-size="11" letter-spacing="0.5" fill="#9A9284" text-anchor="middle">proof-carrying attestation</text><text x="790" y="220" font-family="ui-monospace,&#39;SF Mono&#39;,&#39;Cascadia Mono&#39;,Menlo,Consolas,monospace" font-size="12.5" letter-spacing="2" fill="#EAE5DA" text-anchor="middle">03 · ANCHOR</text><text x="790" y="244" font-family="ui-monospace,&#39;SF Mono&#39;,&#39;Cascadia Mono&#39;,Menlo,Consolas,monospace" font-size="11" letter-spacing="0.5" fill="#9A9284" text-anchor="middle">the attestation lands on</text><text x="790" y="262" font-family="ui-monospace,&#39;SF Mono&#39;,&#39;Cascadia Mono&#39;,Menlo,Consolas,monospace" font-size="11" letter-spacing="0.5" fill="#9A9284" text-anchor="middle">a transparency log</text><text x="1090" y="220" font-family="ui-monospace,&#39;SF Mono&#39;,&#39;Cascadia Mono&#39;,Menlo,Consolas,monospace" font-size="12.5" letter-spacing="2" fill="#EAE5DA" text-anchor="middle">04 · AUDIT</text><text x="1090" y="244" font-family="ui-monospace,&#39;SF Mono&#39;,&#39;Cascadia Mono&#39;,Menlo,Consolas,monospace" font-size="11" letter-spacing="0.5" fill="#9A9284" text-anchor="middle">any auditor replays the</text><text x="1090" y="262" font-family="ui-monospace,&#39;SF Mono&#39;,&#39;Cascadia Mono&#39;,Menlo,Consolas,monospace" font-size="11" letter-spacing="0.5" fill="#9A9284" text-anchor="middle">chain from receipts</text></svg>